<svg xmlns="http://www.w3.org/2000/svg" xmlns:xlink="http://www.w3.org/1999/xlink" width="1334px" height="584px" version="1.1"><defs/><g transform="translate(0.5,0.5)"><path d="M 569 129 L 689 129 L 689 189 L 569 189 Z" fill="#ffffff" stroke="#000000" stroke-width="2" stroke-miterlimit="10" pointer-events="none"/><g fill="#666666" font-family="Arial,Helvetica" text-anchor="middle" font-size="12px"/><g fill="#000000" font-family="Helvetica" font-weight="bold" text-anchor="middle" font-size="12px"><text x="629" y="163">Subject</text></g><path d="M 143 373 L 263 373 L 263 433 L 143 433 Z" fill="#ffffff" stroke="#000000" stroke-width="2" stroke-miterlimit="10" pointer-events="none"/><g fill="#666666" font-family="Arial,Helvetica" text-anchor="middle" font-size="12px"/><g fill="#000000" font-family="Helvetica" font-weight="bold" text-anchor="middle" font-size="12px"><text x="203" y="407">Student</text></g><path d="M 174 124 L 294 124 L 294 184 L 174 184 Z" fill="#ffffff" stroke="#000000" stroke-width="2" stroke-miterlimit="10" pointer-events="none"/><g fill="#666666" font-family="Arial,Helvetica" text-anchor="middle" font-size="12px"/><g fill="#000000" font-family="Helvetica" font-weight="bold" text-anchor="middle" font-size="12px"><text x="234" y="158">Batch</text></g><path d="M 773 238 L 893 238 L 893 298 L 773 298 Z" fill="#ffffff" stroke="#000000" stroke-width="2" stroke-miterlimit="10" pointer-events="none"/><g fill="#666666" font-family="Arial,Helvetica" text-anchor="middle" font-size="12px"/><g fill="#000000" font-family="Helvetica" font-weight="bold" text-anchor="middle" font-size="12px"><text x="833" y="272">Teacher</text></g><path d="M 609 248 L 644 228 L 679 248 L 644 268 Z" fill="#ffffff" stroke="#000000" stroke-width="2" stroke-miterlimit="10" pointer-events="none"/><g fill="#666666" font-family="Arial,Helvetica" text-anchor="middle" font-size="10px"/><g fill="#999999" font-family="Helvetica" text-anchor="middle" font-size="10px"><text x="644" y="251">has</text></g><path d="M 373 159 L 408 139 L 443 159 L 408 179 Z" fill="#ffffff" stroke="#000000" stroke-width="2" stroke-miterlimit="10" pointer-events="none"/><g fill="#666666" font-family="Arial,Helvetica" text-anchor="middle" font-size="10px"/><g fill="#999999" font-family="Helvetica" text-anchor="middle" font-size="10px"><text x="408" y="162">has</text></g><path d="M 373 158 L 294 156" fill="none" stroke="#000000" stroke-miterlimit="10" pointer-events="none"/><path d="M 294 160 L 302 156 L 294 152" fill="none" stroke="#000000" stroke-miterlimit="10" pointer-events="none"/><path d="M 640 228 L 634 189" fill="none" stroke="#000000" stroke-miterlimit="10" pointer-events="none"/><path d="M 630 190 L 635 197 L 638 188" fill="none" stroke="#000000" stroke-miterlimit="10" pointer-events="none"/><path d="M 664 14 C 664 9 668 4 674 4 L 754 4 C 759 4 764 9 764 14 L 764 34 C 764 40 759 44 754 44 L 674 44 C 668 44 664 40 664 34 Z" fill="#ffffff" stroke="#000000" stroke-width="2" stroke-miterlimit="10" pointer-events="none"/><g fill="#666666" font-family="Arial,Helvetica" text-anchor="middle" font-size="12px"/><g fill="#007FFF" font-family="Helvetica" text-anchor="middle" font-size="12px"><text x="714" y="21">id integer</text><text x="714" y="35">primary key</text></g><path d="M 544 13 C 544 8 548 3 554 3 L 634 3 C 639 3 644 8 644 13 L 644 33 C 644 39 639 43 634 43 L 554 43 C 548 43 544 39 544 33 Z" fill="#ffffff" stroke="#000000" stroke-width="2" stroke-miterlimit="10" pointer-events="none"/><g fill="#666666" font-family="Arial,Helvetica" text-anchor="middle" font-size="12px"/><g fill="#007FFF" font-family="Helvetica" text-anchor="middle" font-size="12px"><text x="594" y="20">name</text><text x="594" y="34">varchar(100)</text></g><path d="M 244 493 C 244 487 248 483 254 483 L 334 483 C 339 483 344 487 344 493 L 344 513 C 344 518 339 523 334 523 L 254 523 C 248 523 244 518 244 513 Z" fill="#ffffff" stroke="#000000" stroke-width="2" stroke-miterlimit="10" pointer-events="none"/><g fill="#666666" font-family="Arial,Helvetica" text-anchor="middle" font-size="12px"/><g fill="#007FFF" font-family="Helvetica" text-decoration="underline" text-anchor="middle" font-size="12px"><text x="294" y="500">id integer</text><text x="294" y="514">primary key</text></g><path d="M 3 393 C 3 387 7 383 13 383 L 93 383 C 98 383 103 387 103 393 L 103 413 C 103 418 98 423 93 423 L 13 423 C 7 423 3 418 3 413 Z" fill="#ffffff" stroke="#000000" stroke-width="2" stroke-miterlimit="10" pointer-events="none"/><g fill="#666666" font-family="Arial,Helvetica" text-anchor="middle" font-size="12px"/><g fill="#007FFF" font-family="Helvetica" text-anchor="middle" font-size="12px"><text x="53" y="400">name</text><text x="53" y="414">varchar(40)</text></g><path d="M 124 493 C 124 487 128 483 134 483 L 214 483 C 219 483 224 487 224 493 L 224 513 C 224 518 219 523 214 523 L 134 523 C 128 523 124 518 124 513 Z" fill="#ffffff" stroke="#000000" stroke-width="2" stroke-miterlimit="10" pointer-events="none"/><g fill="#666666" font-family="Arial,Helvetica" text-anchor="middle" font-size="12px"/><g fill="#007FFF" font-family="Helvetica" text-anchor="middle" font-size="12px"><text x="174" y="500">batchId integer</text><text x="174" y="514">foreign key</text></g><path d="M 863 363 C 863 357 867 353 873 353 L 953 353 C 958 353 963 357 963 363 L 963 383 C 963 388 958 393 953 393 L 873 393 C 867 393 863 388 863 383 Z" fill="#ffffff" stroke="#000000" stroke-width="2" stroke-miterlimit="10" pointer-events="none"/><g fill="#666666" font-family="Arial,Helvetica" text-anchor="middle" font-size="12px"/><g fill="#007FFF" font-family="Helvetica" text-anchor="middle" font-size="12px"><text x="913" y="370">name</text><text x="913" y="384">varchar(40)</text></g><path d="M 733 353 C 733 347 737 343 743 343 L 823 343 C 828 343 833 347 833 353 L 833 373 C 833 378 828 383 823 383 L 743 383 C 737 383 733 378 733 373 Z" fill="#ffffff" stroke="#000000" stroke-width="2" stroke-miterlimit="10" pointer-events="none"/><g fill="#666666" font-family="Arial,Helvetica" text-anchor="middle" font-size="12px"/><g fill="#007FFF" font-family="Helvetica" text-anchor="middle" font-size="12px"><text x="783" y="360">id integer</text><text x="783" y="374">primary key</text></g><path d="M 233 34 C 233 28 237 24 243 24 L 323 24 C 328 24 333 28 333 34 L 333 54 C 333 59 328 64 323 64 L 243 64 C 237 64 233 59 233 54 Z" fill="#ffffff" stroke="#000000" stroke-width="2" stroke-miterlimit="10" pointer-events="none"/><g fill="#666666" font-family="Arial,Helvetica" text-anchor="middle" font-size="12px"/><g fill="#007FFF" font-family="Helvetica" text-anchor="middle" font-size="12px"><text x="283" y="41">name</text><text x="283" y="55">varchar(20)</text></g><path d="M 83 33 C 83 27 87 23 93 23 L 183 23 C 188 23 193 27 193 33 L 193 69 C 193 74 188 79 183 79 L 93 79 C 87 79 83 74 83 69 Z" fill="#ffffff" stroke="#000000" stroke-width="2" stroke-miterlimit="10" pointer-events="none"/><g fill="#666666" font-family="Arial,Helvetica" text-anchor="middle" font-size="12px"/><g fill="#007FFF" font-family="Helvetica" text-anchor="middle" font-size="12px"><text x="138" y="48">id integer </text><text x="138" y="62">primary key</text></g><path d="M 3 114 C 3 108 7 104 13 104 L 93 104 C 98 104 103 108 103 114 L 103 134 C 103 139 98 144 93 144 L 13 144 C 7 144 3 139 3 134 Z" fill="#ffffff" stroke="#000000" stroke-width="2" stroke-miterlimit="10" pointer-events="none"/><g fill="#666666" font-family="Arial,Helvetica" text-anchor="middle" font-size="12px"/><g fill="#007FFF" font-family="Helvetica" text-anchor="middle" font-size="12px"><text x="53" y="114">combined</text><text x="53" y="128">integer</text><text x="53" y="142">0 - no, 1-yes</text></g><path d="M 469 76 C 469 70 473 66 479 66 L 559 66 C 564 66 569 70 569 76 L 569 96 C 569 101 564 106 559 106 L 479 106 C 473 106 469 101 469 96 Z" fill="#ffffff" stroke="#000000" stroke-width="2" stroke-miterlimit="10" pointer-events="none"/><g fill="#666666" font-family="Arial,Helvetica" text-anchor="middle" font-size="12px"/><g fill="#007FFF" font-family="Helvetica" text-anchor="middle" font-size="12px"><text x="519" y="83">year</text><text x="519" y="97">integer</text></g><path d="M 103 124 L 174 154" fill="none" stroke="#000000" stroke-miterlimit="10" pointer-events="none"/><path d="M 138 79 L 213 123" fill="none" stroke="#000000" stroke-miterlimit="10" pointer-events="none"/><path d="M 283 64 L 234 124" fill="none" stroke="#000000" stroke-miterlimit="10" pointer-events="none"/><path d="M 723 76 C 723 70 727 66 733 66 L 793 66 C 798 66 803 70 803 76 L 803 94 C 803 99 798 104 793 104 L 733 104 C 727 104 723 99 723 94 Z" fill="#ffffff" stroke="#000000" stroke-width="2" stroke-miterlimit="10" pointer-events="none"/><g fill="#666666" font-family="Arial,Helvetica" text-anchor="middle" font-size="12px"/><g fill="#007fff" font-family="Helvetica" text-anchor="middle" font-size="12px"><text x="763" y="82">branch</text><text x="763" y="96">varchar(40)</text></g><path d="M 519 106 L 599 129" fill="none" stroke="#000000" stroke-miterlimit="10" pointer-events="none"/><path d="M 613 129 L 594 43" fill="none" stroke="#000000" stroke-miterlimit="10" pointer-events="none"/><path d="M 629 129 L 689 44" fill="none" stroke="#000000" stroke-miterlimit="10" pointer-events="none"/><path d="M 659 129 L 723 94" fill="none" stroke="#000000" stroke-miterlimit="10" pointer-events="none"/><path d="M 443 159 L 569 159" fill="none" stroke="#000000" stroke-miterlimit="10" pointer-events="none"/><path d="M 561 163 L 561 155 M 569 155 L 561 159 L 569 163" fill="none" stroke="#000000" stroke-miterlimit="10" pointer-events="none"/><path d="M 143 403 L 103 403" fill="none" stroke="#000000" stroke-miterlimit="10" pointer-events="none"/><path d="M 203 433 L 164 483" fill="none" stroke="#000000" stroke-miterlimit="10" pointer-events="none"/><path d="M 233 433 L 279 483" fill="none" stroke="#000000" stroke-miterlimit="10" pointer-events="none"/><path d="M 148 270 L 175 248 L 203 270 L 175 293 Z" fill="#ffffff" stroke="#000000" stroke-width="2" stroke-miterlimit="10" pointer-events="none"/><g fill="#666666" font-family="Arial,Helvetica" text-anchor="middle" font-size="17px"/><g fill="#000000" font-family="Helvetica" text-anchor="middle" font-size="17px"><text x="175" y="277">Has</text></g><path d="M 175 248 L 204 184" fill="none" stroke="#000000" stroke-miterlimit="10" pointer-events="none"/><path d="M 206 189 L 198 186 M 204 193 L 197 190" fill="none" stroke="#000000" stroke-miterlimit="10" pointer-events="none"/><path d="M 175 293 L 173 373" fill="none" stroke="#000000" stroke-miterlimit="10" pointer-events="none"/><path d="M 169 365 L 177 365 M 177 373 L 173 365 L 169 373" fill="none" stroke="#000000" stroke-miterlimit="10" pointer-events="none"/><path d="M 679 248 L 773 253" fill="none" stroke="#000000" stroke-miterlimit="10" pointer-events="none"/><path d="M 764 256 L 765 248 M 773 249 L 765 252 L 772 257" fill="none" stroke="#000000" stroke-miterlimit="10" pointer-events="none"/><path d="M 933 284 C 933 278 937 274 943 274 L 1023 274 C 1028 274 1033 278 1033 284 L 1033 314 C 1033 319 1028 324 1023 324 L 943 324 C 937 324 933 319 933 314 Z" fill="#ffffff" stroke="#000000" stroke-width="2" stroke-miterlimit="10" pointer-events="none"/><g fill="#666666" font-family="Arial,Helvetica" text-anchor="middle" font-size="12px"/><g fill="#666666" font-family="Helvetica" text-anchor="middle" font-size="12px"><text x="983" y="296">dept</text><text x="983" y="310">varchar(40)</text></g><path d="M 863 298 L 888 353" fill="none" stroke="#000000" stroke-miterlimit="10" pointer-events="none"/><path d="M 808 343 L 803 298" fill="none" stroke="#000000" stroke-miterlimit="10" pointer-events="none"/><path d="M 893 268 L 933 299" fill="none" stroke="#000000" stroke-miterlimit="10" pointer-events="none"/><path d="M 453 466 C 453 460 457 456 463 456 L 542 456 C 547 456 552 460 552 466 L 552 491 C 552 496 547 501 542 501 L 463 501 C 457 501 453 496 453 491 Z" fill="#ffffff" stroke="#000000" stroke-width="2" stroke-miterlimit="10" pointer-events="none"/><g fill="#666666" font-family="Arial,Helvetica" text-anchor="middle" font-size="12px"/><g fill="#666666" font-family="Helvetica" text-anchor="middle" font-size="12px"><text x="502" y="475">type</text><text x="502" y="489">integer</text></g><path d="M 603 433 L 713 433 L 713 483 L 603 483 Z" fill="#ffffff" stroke="#000000" stroke-width="2" stroke-miterlimit="10" pointer-events="none"/><g fill="#666666" font-family="Arial,Helvetica" text-anchor="middle" font-size="12px"/><g fill="#666666" font-family="Helvetica" text-anchor="middle" font-size="12px"><text x="658" y="462">Room</text></g><path d="M 753 483 C 753 477 757 473 763 473 L 843 473 C 848 473 853 477 853 483 L 853 503 C 853 508 848 513 843 513 L 763 513 C 757 513 753 508 753 503 Z" fill="#ffffff" stroke="#000000" stroke-width="2" stroke-miterlimit="10" pointer-events="none"/><g fill="#666666" font-family="Arial,Helvetica" text-anchor="middle" font-size="12px"/><g fill="#007FFF" font-family="Helvetica" text-anchor="middle" font-size="12px"><text x="803" y="490">id integer</text><text x="803" y="504">primary key</text></g><path d="M 673 553 C 673 547 677 543 683 543 L 763 543 C 768 543 773 547 773 553 L 773 573 C 773 578 768 583 763 583 L 683 583 C 677 583 673 578 673 573 Z" fill="#ffffff" stroke="#000000" stroke-width="2" stroke-miterlimit="10" pointer-events="none"/><g fill="#666666" font-family="Arial,Helvetica" text-anchor="middle" font-size="12px"/><g fill="#007FFF" font-family="Helvetica" text-anchor="middle" font-size="12px"><text x="723" y="560">name</text><text x="723" y="574">varchar(40)</text></g><path d="M 544 553 C 544 547 548 543 554 543 L 634 543 C 639 543 644 547 644 553 L 644 573 C 644 578 639 583 634 583 L 554 583 C 548 583 544 578 544 573 Z" fill="#ffffff" stroke="#000000" stroke-width="2" stroke-miterlimit="10" pointer-events="none"/><g fill="#666666" font-family="Arial,Helvetica" text-anchor="middle" font-size="12px"/><g fill="#007FFF" font-family="Helvetica" text-anchor="middle" font-size="12px"><text x="594" y="560">capacity</text><text x="594" y="574">integer</text></g><path d="M 552 478 L 603 458" fill="none" stroke="#000000" stroke-miterlimit="10" pointer-events="none"/><path d="M 594 543 L 630 483" fill="none" stroke="#000000" stroke-miterlimit="10" pointer-events="none"/><path d="M 710 543 L 673 483" fill="none" stroke="#000000" stroke-miterlimit="10" pointer-events="none"/><path d="M 713 470 L 753 493" fill="none" stroke="#000000" stroke-miterlimit="10" pointer-events="none"/><path d="M 1083 64 L 1193 64 L 1193 114 L 1083 114 Z" fill="#ffffff" stroke="#000000" stroke-width="2" stroke-miterlimit="10" pointer-events="none"/><g fill="#666666" font-family="Arial,Helvetica" text-anchor="middle" font-size="12px"/><g fill="#666666" font-family="Helvetica" text-anchor="middle" font-size="12px"><text x="1138" y="93">Slot</text></g><path d="M 1233 114 C 1233 108 1237 104 1243 104 L 1323 104 C 1328 104 1333 108 1333 114 L 1333 134 C 1333 139 1328 144 1323 144 L 1243 144 C 1237 144 1233 139 1233 134 Z" fill="#ffffff" stroke="#000000" stroke-width="2" stroke-miterlimit="10" pointer-events="none"/><g fill="#666666" font-family="Arial,Helvetica" text-anchor="middle" font-size="12px"/><g fill="#007FFF" font-family="Helvetica" text-anchor="middle" font-size="12px"><text x="1283" y="121">id integer</text><text x="1283" y="135">primary key</text></g><path d="M 1153 184 C 1153 178 1157 174 1163 174 L 1243 174 C 1248 174 1253 178 1253 184 L 1253 204 C 1253 209 1248 214 1243 214 L 1163 214 C 1157 214 1153 209 1153 204 Z" fill="#ffffff" stroke="#000000" stroke-width="2" stroke-miterlimit="10" pointer-events="none"/><g fill="#666666" font-family="Arial,Helvetica" text-anchor="middle" font-size="12px"/><g fill="#007FFF" font-family="Helvetica" text-anchor="middle" font-size="12px"><text x="1203" y="191">startTime</text><text x="1203" y="205">integer</text></g><path d="M 1013 164 C 1013 158 1017 154 1023 154 L 1102 154 C 1107 154 1112 158 1112 164 L 1112 193 C 1112 198 1107 203 1102 203 L 1023 203 C 1017 203 1013 198 1013 193 Z" fill="#ffffff" stroke="#000000" stroke-width="2" stroke-miterlimit="10" pointer-events="none"/><g fill="#666666" font-family="Arial,Helvetica" text-anchor="middle" font-size="12px"/><g fill="#007FFF" font-family="Helvetica" text-anchor="middle" font-size="12px"><text x="1062" y="168">roomId</text><text x="1062" y="182">integer</text><text x="1062" y="196">foreign key</text></g><path d="M 1062 154 L 1110 114" fill="none" stroke="#000000" stroke-miterlimit="10" pointer-events="none"/><path d="M 1190 174 L 1153 114" fill="none" stroke="#000000" stroke-miterlimit="10" pointer-events="none"/><path d="M 1193 101 L 1233 124" fill="none" stroke="#000000" stroke-miterlimit="10" pointer-events="none"/><path d="M 943 89 C 943 83 947 79 953 79 L 1033 79 C 1038 79 1043 83 1043 89 L 1043 106 C 1043 111 1038 116 1033 116 L 953 116 C 947 116 943 111 943 106 Z" fill="#ffffff" stroke="#000000" stroke-width="2" stroke-miterlimit="10" pointer-events="none"/><g fill="#666666" font-family="Arial,Helvetica" text-anchor="middle" font-size="12px"/><g fill="#007FFF" font-family="Helvetica" text-anchor="middle" font-size="12px"><text x="993" y="94">duration</text><text x="993" y="108">integer</text></g><path d="M 1043 97 L 1083 89" fill="none" stroke="#000000" stroke-miterlimit="10" pointer-events="none"/></g></svg>